<svg viewBox="0 0 16 16" xmlns="http://www.w3.org/2000/svg" xmlns:xlink="http://www.w3.org/1999/xlink"><radialGradient id="a" cx="50%" cy="-50%" r="99.999879%"><stop offset="0" stop-color="#20c6b7"/><stop offset="1" stop-color="#4d9abf"/></radialGradient><path d="m11.5957286 5.55241716-.0058484-.00250371c-.003342-.00125185-.0066839-.00250371-.0096081-.0054247-.0097145-.01042296-.0140357-.02475956-.0116968-.03880747l.3229158-1.97208703 1.5143208 1.51307397-1.5748937.66932451c-.0043767.00176299-.0090676.00261495-.0137855.0025037h-.0062661c-.0020888-.00125185-.0041775-.00292099-.0083549-.00709384-.0586098-.06518592-.1286985-.11907368-.2067831-.15898543zm2.1964962-.12017797 1.6191744 1.61739512c.3362836.33633138.5046343.50407982.5660426.69853444.0091904.02879263.0167098.05758525.0225582.0872125l-3.8695596-1.63700752c-.0020793-.0008577-.0041681-.00169232-.0062661-.00250371-.0154565-.00625927-.0334195-.01335311-.0334195-.02920993 0-.01585681.0183808-.02336793.0338373-.0296272l.0050129-.00208643zm2.1417717 2.92224406c-.0835488.15689906-.2464688.31964-.5221796.59546513l-1.8255398 1.82311642-2.3610872-.4911439-.0125323-.0025038c-.0208872-.0033382-.0430275-.0070938-.0430275-.0258716-.0181264-.1966701-.1172315-.37697912-.2736222-.49782056-.0096081-.0095975-.0071016-.02461975-.0041774-.03839013 0-.00208643 0-.00417287.0008355-.005842l.4440615-2.72319931.001671-.00918031c.0025064-.02086419.0062661-.04506669.0250646-.04506669.1922305-.02388731.3668138-.12386175.4845826-.27749425.0037597-.00417287.0062662-.008763.0112791-.01126669.0133678-.00625931.0292421 0 .0430276.00584194l4.0312263 1.70335575zm-2.7675517 2.83795265-3.001906 2.9986071.5138247-3.1546716.0008355-.0041728c.0004178-.0041728.0012532-.0083457.0025064-.0121013.0041775-.0100148.0150388-.0141877.0254824-.0183605l.005013-.0020864c.1125049-.0479483.2120095-.1218869.2903318-.2157361.0100258-.011684.0221404-.0229507.0375969-.0250372.0040116-.0006541.0081029-.0006541.0121146 0l2.1137829.433976zm-3.63729411 3.633297-.33837238.3380005-3.7408945-5.40049734c-.00135277-.00197531-.00274554-.00392306-.00417743-.00584193-.00584841-.00792844-.01211457-.01585682-.01086134-.02503713.00041775-.0066765.00459518-.0125185.00919037-.01752594l.00417743-.00542468c.01127908-.01669138.02088718-.03338275.03133077-.051326l.00835488-.01460494.00125323-.00125188c.00584841-.01001481.01127908-.01961237.02130492-.02503706.00877262-.00417287.02088719-.00250375.03049529-.00041731l4.14443488.85376431c.01158831.0018001.02252.0065415.0317485.0137704.00543069.0054247.00668394.0112667.00793713.0179432.05860137.2214782.21747037.4028652.42944046.4903095.0116969.0058419.0066839.0187777.0012533.0325482-.0027095.0060351-.0048087.0123256-.0062662.0187778-.0522179.3171362-.50003913 3.045343-.62034931 3.7818503zm-.70682232.7056283c-.24939293.2466152-.39643868.3772252-.56270068.4298031-.16393263.051781-.33986625.051781-.50379888 0-.1946685-.0617581-.36301925-.2295065-.69930287-.5658379l-3.75676875-3.7526405.98127986-1.5201678c.00459518-.0075111.00919036-.0141877.01670974-.0196123.0104436-.0075112.02548237-.0041729.03801468 0 .22523086.067876.4670556.0556359.68426412-.0346347.01127908-.0041728.02255815-.0070938.03133077.0008346.00438683.0039999.00831034.0084789.01169682.0133531l3.75927519 5.4493196zm-5.88475494-4.250461-.86180517-.8608581 1.70188768-.72524066c.00435016-.00189488.0090399-.00288856.01378554-.002921.01420328 0 .02255816.01418769.03007754.0271235.01710326.02628406.03521906.05189669.05430667.07678037l.00543067.00667657c.00501293.00709381.00167098.01418762-.00334195.02086418l-.93992323 1.45757514zm-1.24320514-1.241839-1.09031095-1.08911282c-.18547819-.18527432-.31999165-.31964-.41356623-.43522782l3.3152137.68685044c.00416449.000771.00834261.00146656.01253231.00208644.02046944.00333825.0430276.00709381.0430276.02628894 0 .02086425-.02464688.03046175-.04553406.03839018l-.0096081.00417282zm-1.69436829-2.08433657c.00377814-.07015832.01641037-.13955925.03759693-.20655588.06182606-.19445462.22975901-.36220306.56646041-.69853444l1.39526383-1.39373057c.64242004.93132907 1.28658189 1.86145807 1.93248218 2.79038214.01127908.01502225.02381139.03171362.01086133.04423218-.06099057.06718282-.12198115.14062488-.16500874.22032625-.00466785.01024475-.01185287.01914438-.02088719.02587163-.00543066.00333831-.01127908.00208644-.01754523.00083462h-.00083549l-3.73838803-.78324325zm2.372784-2.67187332 1.87608679-1.87402516c.17628782.07719766.81794209.34801536 1.39192188.59004043.4344534.18360523.83047439.35051907.95496202.40476606.01253231.00500742.02381137.01001484.02924206.02253337.00334194.00751113.00167094.01710867 0 .02503708-.060326.27479033.02178212.56146094.21847994.76279625.01253231.01251854 0 .03046179-.01086138.04590131l-.00584837.00876298-1.90491112 2.94728118c-.00501292.00834569-.00960809.0154395-.01796297.02086419-.01002585.00625931-.02422913.00333831-.03592596.00041731-.07408895-.01938962-.15025349-.02975793-.2268348-.03087906-.06850997 0-.14286834.0125185-.2180622.02628894h-.00041774c-.00835488.00125181-.01587426.002921-.02255816-.00208644-.0073822-.00602637-.01373162-.01321444-.01879847-.0212815zm2.25498029-2.25250229 2.42876165-2.42609269c.33628362-.3359141.50463437-.5040798.69930287-.56542063.16393263-.05178093.33986625-.05178093.50379888 0 .19466856.06134083.36301925.22950653.69930287.56542063l.526357.5257786-1.72737 2.6722906c-.00427325.00777947-.01010331.0145974-.0171275.02002966-.01044362.00709384-.02506462.00417285-.03759693 0-.27648563-.08381323-.57656294-.02604938-.80206782.15439531-.01127912.01168397-.02798881.00500741-.04219212-.00125186-.22558156-.09806188-1.98010496-.83874205-2.2311689-.94514962zm5.22430221-1.53393821 1.5949453 1.59319262-.3843241 2.37768767v.00625927c-.0003432.00541886-.0014688.01075971-.003342.01585681-.0041775.0083457-.0125323.01001483-.0208872.01251855-.0821705.02486244-.1595612.06337418-.2289235.11391869-.002982.00212279-.0057771.00449602-.0083549.00709384-.0045952.00500742-.0091903.00959755-.0167097.01043212-.00612.00018887-.012219-.0008029-.017963-.002921l-2.43043265-1.03152754-.00459512-.00208642c-.01545657-.00625927-.03383725-.01377039-.03383725-.02962721-.0142855-.13529024-.05852069-.26571198-.12950057-.38181541-.01169681-.01919509-.02464687-.03922476-.014621-.05883713zm-1.64256806 3.5911513 2.27837396.96392743c.0125323.00584199.0263179.01126669.0317485.02420251.002174.0077797.002174.01600553 0 .02378523-.0066839.03338276-.0125323.07135566-.0125323.10974585v.06384456c0 .01585681-.016292.02253337-.0313308.02879262l-.0045952.00166913c-.3609305.153978-5.06723059 2.15861325-5.07433223 2.15861325s-.01462103 0-.02172267-.00709381c-.01253231-.01251857 0-.0300445.01127908-.04590132.00199408-.00275043.0039438-.00553268.00584841-.00834568l1.87232712-2.89595517.00334194-.00500741c.01086131-.01752596.02339362-.03713833.04344531-.03713833l.0187985.00292099c.04260981.00584198.08020675.01126668.11822144.01126668.28406569 0 .54724419-.1381212.70598681-.37430428.00378213-.00630699.00858113-.01194668.01420325-.01669138.01127907-.0083457.02798882-.00417285.04093888.00166913zm-2.60922691 3.83275908 5.12989217-2.18531944s.0075194 0 .0146211.00709381c.0279888.02795807.0518001.04673588.0747761.06426182l.011279.00709387c.0104436.00584194.0208872.0125185.0217227.02336794 0 .00417281 0 .00667656-.0008355.01043212l-.4394664 2.69649307-.0016709.01084943c-.0029242.02086419-.0058484.04464944-.0254824.04464944-.2378657.01603769-.45248671.14829131-.57356203.35344006l-.00208868.00333825c-.00584844.00959757-.01127913.01877782-.02088719.02378525-.00877262.00417282-.02005169.00250369-.02924206.00041725l-4.09096369-.84291487c-.00417744-.00083456-.06349704-.21657069-.06809222-.216988z" fill="url(#a)"/></svg>